<svg xmlns="http://www.w3.org/2000/svg" version="1.1" xmlns:xlink="http://www.w3.org/1999/xlink" xmlns:svgjs="http://svgjs.com/svgjs" width="1440" height="560" preserveAspectRatio="none" viewBox="0 0 1440 560"><g mask="url(&quot;#SvgjsMask3365&quot;)" fill="none"><rect width="1440" height="560" x="0" y="0" fill="url(#SvgjsLinearGradient3366)"></rect><path d="M65.21 -32.07L130.16 5.43L130.16 80.43L65.21 117.93L0.26 80.43L0.26 5.43zM130.16 80.43L195.12 117.93L195.12 192.93L130.16 230.43L65.21 192.93L65.21 117.93zM65.21 192.93L130.16 230.43L130.16 305.43L65.21 342.93L0.26 305.43L0.26 230.43zM130.16 305.43L195.12 342.93L195.12 417.93L130.16 455.43L65.21 417.93L65.21 342.93zM65.21 417.93L130.16 455.43L130.16 530.43L65.21 567.93L0.26 530.43L0.26 455.43zM325.02 417.93L389.98 455.43L389.98 530.43L325.02 567.93L260.07 530.43L260.07 455.43zM389.98 530.43L454.93 567.93L454.93 642.93L389.98 680.43L325.02 642.93L325.02 567.93zM519.89 80.43L584.84 117.93L584.84 192.93L519.89 230.43L454.93 192.93L454.93 117.93zM454.93 192.93L519.89 230.43L519.89 305.43L454.93 342.93L389.98 305.43L389.98 230.43zM584.84 -32.07L649.79 5.43L649.79 80.43L584.84 117.93L519.89 80.43L519.89 5.43zM584.84 192.93L649.79 230.43L649.79 305.43L584.84 342.93L519.89 305.43L519.89 230.43zM584.84 417.93L649.79 455.43L649.79 530.43L584.84 567.93L519.89 530.43L519.89 455.43zM649.79 530.43L714.75 567.93L714.75 642.93L649.79 680.43L584.84 642.93L584.84 567.93zM779.7 80.43L844.66 117.93L844.66 192.93L779.7 230.43L714.75 192.93L714.75 117.93zM714.75 192.93L779.7 230.43L779.7 305.43L714.75 342.93L649.79 305.43L649.79 230.43zM779.7 305.43L844.66 342.93L844.66 417.93L779.7 455.43L714.75 417.93L714.75 342.93zM779.7 530.43L844.66 567.93L844.66 642.93L779.7 680.43L714.75 642.93L714.75 567.93zM844.65 192.93L909.61 230.43L909.61 305.43L844.65 342.93L779.7 305.43L779.7 230.43zM909.61 305.43L974.56 342.93L974.56 417.93L909.61 455.43L844.65 417.93L844.65 342.93zM909.61 530.43L974.56 567.93L974.56 642.93L909.61 680.43L844.65 642.93L844.65 567.93zM1039.52 80.43L1104.47 117.93L1104.47 192.93L1039.52 230.43L974.56 192.93L974.56 117.93zM974.56 192.93L1039.52 230.43L1039.52 305.43L974.56 342.93L909.61 305.43L909.61 230.43zM1039.52 305.43L1104.47 342.93L1104.47 417.93L1039.52 455.43L974.56 417.93L974.56 342.93zM1169.42 305.43L1234.38 342.93L1234.38 417.93L1169.42 455.43L1104.47 417.93L1104.47 342.93zM1169.42 530.43L1234.38 567.93L1234.38 642.93L1169.42 680.43L1104.47 642.93L1104.47 567.93zM1299.33 305.43L1364.28 342.93L1364.28 417.93L1299.33 455.43L1234.38 417.93L1234.38 342.93zM1234.38 417.93L1299.33 455.43L1299.33 530.43L1234.38 567.93L1169.42 530.43L1169.42 455.43zM1559.15 80.43L1624.1 117.93L1624.1 192.93L1559.15 230.43L1494.19 192.93L1494.19 117.93zM1494.19 192.93L1559.15 230.43L1559.15 305.43L1494.19 342.93L1429.24 305.43L1429.24 230.43z" stroke="url(#SvgjsLinearGradient3367)" stroke-width="2"></path><path d="M57.71 -32.07 a7.5 7.5 0 1 0 15 0 a7.5 7.5 0 1 0 -15 0zM122.66 5.43 a7.5 7.5 0 1 0 15 0 a7.5 7.5 0 1 0 -15 0zM122.66 80.43 a7.5 7.5 0 1 0 15 0 a7.5 7.5 0 1 0 -15 0zM57.71 117.93 a7.5 7.5 0 1 0 15 0 a7.5 7.5 0 1 0 -15 0zM-7.24 80.43 a7.5 7.5 0 1 0 15 0 a7.5 7.5 0 1 0 -15 0zM-7.24 5.43 a7.5 7.5 0 1 0 15 0 a7.5 7.5 0 1 0 -15 0zM187.62 117.93 a7.5 7.5 0 1 0 15 0 a7.5 7.5 0 1 0 -15 0zM187.62 192.93 a7.5 7.5 0 1 0 15 0 a7.5 7.5 0 1 0 -15 0zM122.66 230.43 a7.5 7.5 0 1 0 15 0 a7.5 7.5 0 1 0 -15 0zM57.71 192.93 a7.5 7.5 0 1 0 15 0 a7.5 7.5 0 1 0 -15 0zM122.66 305.43 a7.5 7.5 0 1 0 15 0 a7.5 7.5 0 1 0 -15 0zM57.71 342.93 a7.5 7.5 0 1 0 15 0 a7.5 7.5 0 1 0 -15 0zM-7.24 305.43 a7.5 7.5 0 1 0 15 0 a7.5 7.5 0 1 0 -15 0zM-7.24 230.43 a7.5 7.5 0 1 0 15 0 a7.5 7.5 0 1 0 -15 0zM187.62 342.93 a7.5 7.5 0 1 0 15 0 a7.5 7.5 0 1 0 -15 0zM187.62 417.93 a7.5 7.5 0 1 0 15 0 a7.5 7.5 0 1 0 -15 0zM122.66 455.43 a7.5 7.5 0 1 0 15 0 a7.5 7.5 0 1 0 -15 0zM57.71 417.93 a7.5 7.5 0 1 0 15 0 a7.5 7.5 0 1 0 -15 0zM122.66 530.43 a7.5 7.5 0 1 0 15 0 a7.5 7.5 0 1 0 -15 0zM57.71 567.93 a7.5 7.5 0 1 0 15 0 a7.5 7.5 0 1 0 -15 0zM-7.24 530.43 a7.5 7.5 0 1 0 15 0 a7.5 7.5 0 1 0 -15 0zM-7.24 455.43 a7.5 7.5 0 1 0 15 0 a7.5 7.5 0 1 0 -15 0zM317.52 417.93 a7.5 7.5 0 1 0 15 0 a7.5 7.5 0 1 0 -15 0zM382.48 455.43 a7.5 7.5 0 1 0 15 0 a7.5 7.5 0 1 0 -15 0zM382.48 530.43 a7.5 7.5 0 1 0 15 0 a7.5 7.5 0 1 0 -15 0zM317.52 567.93 a7.5 7.5 0 1 0 15 0 a7.5 7.5 0 1 0 -15 0zM252.57 530.43 a7.5 7.5 0 1 0 15 0 a7.5 7.5 0 1 0 -15 0zM252.57 455.43 a7.5 7.5 0 1 0 15 0 a7.5 7.5 0 1 0 -15 0zM447.43 567.93 a7.5 7.5 0 1 0 15 0 a7.5 7.5 0 1 0 -15 0zM447.43 642.93 a7.5 7.5 0 1 0 15 0 a7.5 7.5 0 1 0 -15 0zM382.48 680.43 a7.5 7.5 0 1 0 15 0 a7.5 7.5 0 1 0 -15 0zM317.52 642.93 a7.5 7.5 0 1 0 15 0 a7.5 7.5 0 1 0 -15 0zM512.39 80.43 a7.5 7.5 0 1 0 15 0 a7.5 7.5 0 1 0 -15 0zM577.34 117.93 a7.5 7.5 0 1 0 15 0 a7.5 7.5 0 1 0 -15 0zM577.34 192.93 a7.5 7.5 0 1 0 15 0 a7.5 7.5 0 1 0 -15 0zM512.39 230.43 a7.5 7.5 0 1 0 15 0 a7.5 7.5 0 1 0 -15 0zM447.43 192.93 a7.5 7.5 0 1 0 15 0 a7.5 7.5 0 1 0 -15 0zM447.43 117.93 a7.5 7.5 0 1 0 15 0 a7.5 7.5 0 1 0 -15 0zM512.39 305.43 a7.5 7.5 0 1 0 15 0 a7.5 7.5 0 1 0 -15 0zM447.43 342.93 a7.5 7.5 0 1 0 15 0 a7.5 7.5 0 1 0 -15 0zM382.48 305.43 a7.5 7.5 0 1 0 15 0 a7.5 7.5 0 1 0 -15 0zM382.48 230.43 a7.5 7.5 0 1 0 15 0 a7.5 7.5 0 1 0 -15 0zM577.34 -32.07 a7.5 7.5 0 1 0 15 0 a7.5 7.5 0 1 0 -15 0zM642.29 5.43 a7.5 7.5 0 1 0 15 0 a7.5 7.5 0 1 0 -15 0zM642.29 80.43 a7.5 7.5 0 1 0 15 0 a7.5 7.5 0 1 0 -15 0zM512.39 5.43 a7.5 7.5 0 1 0 15 0 a7.5 7.5 0 1 0 -15 0zM642.29 230.43 a7.5 7.5 0 1 0 15 0 a7.5 7.5 0 1 0 -15 0zM642.29 305.43 a7.5 7.5 0 1 0 15 0 a7.5 7.5 0 1 0 -15 0zM577.34 342.93 a7.5 7.5 0 1 0 15 0 a7.5 7.5 0 1 0 -15 0zM577.34 417.93 a7.5 7.5 0 1 0 15 0 a7.5 7.5 0 1 0 -15 0zM642.29 455.43 a7.5 7.5 0 1 0 15 0 a7.5 7.5 0 1 0 -15 0zM642.29 530.43 a7.5 7.5 0 1 0 15 0 a7.5 7.5 0 1 0 -15 0zM577.34 567.93 a7.5 7.5 0 1 0 15 0 a7.5 7.5 0 1 0 -15 0zM512.39 530.43 a7.5 7.5 0 1 0 15 0 a7.5 7.5 0 1 0 -15 0zM512.39 455.43 a7.5 7.5 0 1 0 15 0 a7.5 7.5 0 1 0 -15 0zM707.25 567.93 a7.5 7.5 0 1 0 15 0 a7.5 7.5 0 1 0 -15 0zM707.25 642.93 a7.5 7.5 0 1 0 15 0 a7.5 7.5 0 1 0 -15 0zM642.29 680.43 a7.5 7.5 0 1 0 15 0 a7.5 7.5 0 1 0 -15 0zM577.34 642.93 a7.5 7.5 0 1 0 15 0 a7.5 7.5 0 1 0 -15 0zM772.2 80.43 a7.5 7.5 0 1 0 15 0 a7.5 7.5 0 1 0 -15 0zM837.16 117.93 a7.5 7.5 0 1 0 15 0 a7.5 7.5 0 1 0 -15 0zM837.16 192.93 a7.5 7.5 0 1 0 15 0 a7.5 7.5 0 1 0 -15 0zM772.2 230.43 a7.5 7.5 0 1 0 15 0 a7.5 7.5 0 1 0 -15 0zM707.25 192.93 a7.5 7.5 0 1 0 15 0 a7.5 7.5 0 1 0 -15 0zM707.25 117.93 a7.5 7.5 0 1 0 15 0 a7.5 7.5 0 1 0 -15 0zM772.2 305.43 a7.5 7.5 0 1 0 15 0 a7.5 7.5 0 1 0 -15 0zM707.25 342.93 a7.5 7.5 0 1 0 15 0 a7.5 7.5 0 1 0 -15 0zM837.16 342.93 a7.5 7.5 0 1 0 15 0 a7.5 7.5 0 1 0 -15 0zM837.16 417.93 a7.5 7.5 0 1 0 15 0 a7.5 7.5 0 1 0 -15 0zM772.2 455.43 a7.5 7.5 0 1 0 15 0 a7.5 7.5 0 1 0 -15 0zM707.25 417.93 a7.5 7.5 0 1 0 15 0 a7.5 7.5 0 1 0 -15 0zM772.2 530.43 a7.5 7.5 0 1 0 15 0 a7.5 7.5 0 1 0 -15 0zM837.16 567.93 a7.5 7.5 0 1 0 15 0 a7.5 7.5 0 1 0 -15 0zM837.16 642.93 a7.5 7.5 0 1 0 15 0 a7.5 7.5 0 1 0 -15 0zM772.2 680.43 a7.5 7.5 0 1 0 15 0 a7.5 7.5 0 1 0 -15 0zM837.15 192.93 a7.5 7.5 0 1 0 15 0 a7.5 7.5 0 1 0 -15 0zM902.11 230.43 a7.5 7.5 0 1 0 15 0 a7.5 7.5 0 1 0 -15 0zM902.11 305.43 a7.5 7.5 0 1 0 15 0 a7.5 7.5 0 1 0 -15 0zM837.15 342.93 a7.5 7.5 0 1 0 15 0 a7.5 7.5 0 1 0 -15 0zM967.06 342.93 a7.5 7.5 0 1 0 15 0 a7.5 7.5 0 1 0 -15 0zM967.06 417.93 a7.5 7.5 0 1 0 15 0 a7.5 7.5 0 1 0 -15 0zM902.11 455.43 a7.5 7.5 0 1 0 15 0 a7.5 7.5 0 1 0 -15 0zM837.15 417.93 a7.5 7.5 0 1 0 15 0 a7.5 7.5 0 1 0 -15 0zM902.11 530.43 a7.5 7.5 0 1 0 15 0 a7.5 7.5 0 1 0 -15 0zM967.06 567.93 a7.5 7.5 0 1 0 15 0 a7.5 7.5 0 1 0 -15 0zM967.06 642.93 a7.5 7.5 0 1 0 15 0 a7.5 7.5 0 1 0 -15 0zM902.11 680.43 a7.5 7.5 0 1 0 15 0 a7.5 7.5 0 1 0 -15 0zM837.15 642.93 a7.5 7.5 0 1 0 15 0 a7.5 7.5 0 1 0 -15 0zM837.15 567.93 a7.5 7.5 0 1 0 15 0 a7.5 7.5 0 1 0 -15 0zM1032.02 80.43 a7.5 7.5 0 1 0 15 0 a7.5 7.5 0 1 0 -15 0zM1096.97 117.93 a7.5 7.5 0 1 0 15 0 a7.5 7.5 0 1 0 -15 0zM1096.97 192.93 a7.5 7.5 0 1 0 15 0 a7.5 7.5 0 1 0 -15 0zM1032.02 230.43 a7.5 7.5 0 1 0 15 0 a7.5 7.5 0 1 0 -15 0zM967.06 192.93 a7.5 7.5 0 1 0 15 0 a7.5 7.5 0 1 0 -15 0zM967.06 117.93 a7.5 7.5 0 1 0 15 0 a7.5 7.5 0 1 0 -15 0zM1032.02 305.43 a7.5 7.5 0 1 0 15 0 a7.5 7.5 0 1 0 -15 0zM1096.97 342.93 a7.5 7.5 0 1 0 15 0 a7.5 7.5 0 1 0 -15 0zM1096.97 417.93 a7.5 7.5 0 1 0 15 0 a7.5 7.5 0 1 0 -15 0zM1032.02 455.43 a7.5 7.5 0 1 0 15 0 a7.5 7.5 0 1 0 -15 0zM1161.92 305.43 a7.5 7.5 0 1 0 15 0 a7.5 7.5 0 1 0 -15 0zM1226.88 342.93 a7.5 7.5 0 1 0 15 0 a7.5 7.5 0 1 0 -15 0zM1226.88 417.93 a7.5 7.5 0 1 0 15 0 a7.5 7.5 0 1 0 -15 0zM1161.92 455.43 a7.5 7.5 0 1 0 15 0 a7.5 7.5 0 1 0 -15 0zM1161.92 530.43 a7.5 7.5 0 1 0 15 0 a7.5 7.5 0 1 0 -15 0zM1226.88 567.93 a7.5 7.5 0 1 0 15 0 a7.5 7.5 0 1 0 -15 0zM1226.88 642.93 a7.5 7.5 0 1 0 15 0 a7.5 7.5 0 1 0 -15 0zM1161.92 680.43 a7.5 7.5 0 1 0 15 0 a7.5 7.5 0 1 0 -15 0zM1096.97 642.93 a7.5 7.5 0 1 0 15 0 a7.5 7.5 0 1 0 -15 0zM1096.97 567.93 a7.5 7.5 0 1 0 15 0 a7.5 7.5 0 1 0 -15 0zM1291.83 305.43 a7.5 7.5 0 1 0 15 0 a7.5 7.5 0 1 0 -15 0zM1356.78 342.93 a7.5 7.5 0 1 0 15 0 a7.5 7.5 0 1 0 -15 0zM1356.78 417.93 a7.5 7.5 0 1 0 15 0 a7.5 7.5 0 1 0 -15 0zM1291.83 455.43 a7.5 7.5 0 1 0 15 0 a7.5 7.5 0 1 0 -15 0zM1291.83 530.43 a7.5 7.5 0 1 0 15 0 a7.5 7.5 0 1 0 -15 0zM1551.65 80.43 a7.5 7.5 0 1 0 15 0 a7.5 7.5 0 1 0 -15 0zM1616.6 117.93 a7.5 7.5 0 1 0 15 0 a7.5 7.5 0 1 0 -15 0zM1616.6 192.93 a7.5 7.5 0 1 0 15 0 a7.5 7.5 0 1 0 -15 0zM1551.65 230.43 a7.5 7.5 0 1 0 15 0 a7.5 7.5 0 1 0 -15 0zM1486.69 192.93 a7.5 7.5 0 1 0 15 0 a7.5 7.5 0 1 0 -15 0zM1486.69 117.93 a7.5 7.5 0 1 0 15 0 a7.5 7.5 0 1 0 -15 0zM1551.65 305.43 a7.5 7.5 0 1 0 15 0 a7.5 7.5 0 1 0 -15 0zM1486.69 342.93 a7.5 7.5 0 1 0 15 0 a7.5 7.5 0 1 0 -15 0zM1421.74 305.43 a7.5 7.5 0 1 0 15 0 a7.5 7.5 0 1 0 -15 0zM1421.74 230.43 a7.5 7.5 0 1 0 15 0 a7.5 7.5 0 1 0 -15 0z" fill="url(#SvgjsLinearGradient3367)"></path><path d="M94.76 314.64L197.82 374.14L197.82 493.14L94.76 552.64L-8.3 493.14L-8.3 374.14zM507 -42.36L610.06 17.14L610.06 136.14L507 195.64L403.94 136.14L403.94 17.14zM713.12 314.64L816.18 374.14L816.18 493.14L713.12 552.64L610.06 493.14L610.06 374.14zM816.18 493.14L919.24 552.64L919.24 671.64L816.18 731.14L713.12 671.64L713.12 552.64zM919.24 -42.36L1022.3 17.14L1022.3 136.14L919.24 195.64L816.18 136.14L816.18 17.14zM1022.3 493.14L1125.36 552.64L1125.36 671.64L1022.3 731.14L919.24 671.64L919.24 552.64zM1125.36 -42.36L1228.42 17.14L1228.42 136.14L1125.36 195.64L1022.3 136.14L1022.3 17.14zM1331.48 -42.36L1434.54 17.14L1434.54 136.14L1331.48 195.64L1228.42 136.14L1228.42 17.14zM1434.54 493.14L1537.6 552.64L1537.6 671.64L1434.54 731.14L1331.48 671.64L1331.48 552.64z" stroke="url(#SvgjsLinearGradient3368)" stroke-width="2"></path></g><defs><mask id="SvgjsMask3365"><rect width="1440" height="560" fill="#ffffff"></rect></mask><linearGradient x1="15.28%" y1="-39.29%" x2="84.72%" y2="139.29%" gradientUnits="userSpaceOnUse" id="SvgjsLinearGradient3366"><stop stop-color="rgba(181, 207, 14, 1)" offset="0.01"></stop><stop stop-color="rgba(99, 220, 0, 1)" offset="1"></stop></linearGradient><linearGradient x1="220.03199999999998" y1="-220.02399999999997" x2="1219.9679999999998" y2="780.024" gradientUnits="userSpaceOnUse" id="SvgjsLinearGradient3367"><stop stop-color="rgba(158, 0, 0, 1)" offset="0"></stop><stop stop-color="rgba(254, 252, 0, 1)" offset="1"></stop></linearGradient><linearGradient x1="220.03199999999998" y1="-220.02399999999997" x2="1219.9679999999998" y2="780.024" gradientUnits="userSpaceOnUse" id="SvgjsLinearGradient3368"><stop stop-color="#0e2a47" offset="0"></stop><stop stop-color="rgba(12, 132, 8, 1)" offset="1"></stop></linearGradient></defs></svg>