<svg xmlns="http://www.w3.org/2000/svg" version="1.1" xmlns:xlink="http://www.w3.org/1999/xlink" xmlns:svgjs="http://svgjs.com/svgjs" width="1450" height="560" preserveAspectRatio="none" viewBox="0 0 1450 560"><g mask="url(&quot;#SvgjsMask1000&quot;)" fill="none"><path d="M -666.4970214626217,373 C -569.7,319.8 -376.1,81.6 -182.49702146262166,107 C 11.1,132.4 107.9,510.2 301.50297853737834,500 C 495.1,489.8 591.9,76.6 785.5029785373783,56 C 979.1,35.4 1136.6,357.8 1269.5029785373783,397 C 1402.4,436.2 1413.9,281 1450,252" stroke="rgba(173, 255, 0, 0.58)" stroke-width="2"></path><path d="M -394.1991781422736,159 C -297.4,215.8 -103.8,436.8 89.80082185772645,443 C 283.4,449.2 380.2,200 573.8008218577264,190 C 767.4,180 864.2,391.6 1057.8008218577265,393 C 1251.4,394.4 1463.36,190.2 1541.8008218577265,197 C 1620.24,203.8 1468.36,381 1450,427" stroke="rgba(173, 255, 0, 0.58)" stroke-width="2"></path><path d="M -121.70082275865724,333 C -24.9,284.4 168.7,94 362.29917724134276,90 C 555.9,86 652.7,312 846.2991772413427,313 C 1039.9,314 1136.7,94.4 1330.2991772413427,95 C 1523.9,95.6 1790.36,292.4 1814.2991772413427,316 C 1838.24,339.6 1522.86,233.6 1450,213" stroke="rgba(0, 255, 78, 1)" stroke-width="2"></path><path d="M -143.12900727538602,335 C -46.33,282.6 147.27,50.8 340.870992724614,73 C 534.47,95.2 631.27,410.4 824.870992724614,446 C 1018.47,481.6 1115.27,240.2 1308.870992724614,251 C 1502.47,261.8 1764.65,520.2 1792.870992724614,500 C 1821.1,479.8 1518.57,220 1450,150" stroke="rgba(0, 255, 78, 1)" stroke-width="2"></path></g><defs><mask id="SvgjsMask1000"><rect width="1450" height="560" fill="#ffffff"></rect></mask></defs></svg>